<svg id="Layer_1" data-name="Layer 1" xmlns="http://www.w3.org/2000/svg" viewBox="0 0 568.14 126.47"><defs><style>.cls-1{fill:#fff;}</style></defs><title>LinkWareLive_White</title><path class="cls-1" d="M76.79,112.7l-7.15,59.17H97.27L96,182.29H55.83l8.41-69.6H76.79Z" transform="translate(-55.83 -56.82)"/><path class="cls-1" d="M106.3,127h12.36L112,182.29H99.62Z" transform="translate(-55.83 -56.82)"/><path class="cls-1" d="M166.72,182.29H154.26l4.29-35.54c0.82-6.75-1.94-10.52-8-10.52A14.11,14.11,0,0,0,138.3,144l-4.63,38.32H121.32L128,127h9.54l1.85,5.46h0.4A23.44,23.44,0,0,1,156,125.7c11,0,16.76,6,15.36,18.37Z" transform="translate(-55.83 -56.82)"/><path class="cls-1" d="M187.1,182.29H174.75L183.84,107h12.35Zm4.35-29.39L211.66,127h14.46L205,152.71l0,0.4,15.16,29.19h-15l-13.78-29Z" transform="translate(-55.83 -56.82)"/><path class="cls-1" d="M244.57,168.89c1.39-5.66,4.47-13.7,6-18.27L264,112.7h15.67l4.75,38c0.56,5.36,1.58,13.5,1.53,18.07h0.4c0.93-4.37,4.4-14.79,6.65-20.95L305.9,112.7h12.46L292,182.29H276.3l-4.39-36c-0.7-6.65-1.64-15.49-1.67-20.25h-0.4c-1.31,5.06-4.27,13.7-5.8,18.07L250,182.29H234.31l-9.58-69.6H238.2l4.46,33.76c0.65,5.46,1.94,17.18,1.51,22.44h0.4Z" transform="translate(-55.83 -56.82)"/><path class="cls-1" d="M353,143.77L350.16,167c-0.46,3.77.59,6,3.7,6h1.51l-1,8.54a11.76,11.76,0,0,1-5.89,1.39c-5.42,0-8.21-2.68-9.39-6.25h-0.4c-2.66,2.88-7.33,6.65-16,6.65-10.65,0-15.49-7.35-14.55-15.09,1.51-12.51,14.08-18.47,32.38-17.77l0.6-5c0.88-7.25-2.69-9.33-8.32-9.33a13,13,0,0,0-11.52,6.35l-8-6.55A26.11,26.11,0,0,1,334,126.1C347.47,126.1,354.5,131.06,353,143.77ZM339.48,159c-11.08-.6-18.32,2-19.06,8.14-0.46,3.77,1.81,6.65,6.63,6.65a15,15,0,0,0,11.28-5.26Z" transform="translate(-55.83 -56.82)"/><path class="cls-1" d="M395.08,138.61a33,33,0,0,0-6.26-.6c-5,0-10.58,1.89-14,5.46l-4.69,38.82H357.86l6.68-55.3h9.54l1.73,7.35h0.4a17.54,17.54,0,0,1,15.38-8.44,22.23,22.23,0,0,1,5,.5Z" transform="translate(-55.83 -56.82)"/><path class="cls-1" d="M434.07,177.53c-4.5,3.18-10.44,5.76-20.08,5.76-17.08,0-24.8-9.23-22.44-28.79,2.27-18.76,14-28.49,28.75-28.49,13.86,0,20.64,8.74,19,22.14a76.8,76.8,0,0,1-1.78,9.73H403.29c-0.87,10.52,3.15,15.49,13.3,15.49a20.89,20.89,0,0,0,13.12-4.67Zm-6.38-30.38c0.91-7.55-1.91-11.62-9-11.62-6.93,0-12.63,4.77-14.12,13.8h22.9Z" transform="translate(-55.83 -56.82)"/><path class="cls-1" d="M485,112.7l-7.15,59.17h27.62l-1.26,10.42H464l8.41-69.6H485Z" transform="translate(-55.83 -56.82)"/><path class="cls-1" d="M514.49,127h12.36l-6.68,55.3H507.82Z" transform="translate(-55.83 -56.82)"/><path class="cls-1" d="M548.27,155.88c1.12,6.55,1.65,10.43,2,14.79h0.4c1.32-4.27,2.8-8.24,5.4-14.79l12-28.89h12.56l-24.86,55.3h-14L529.46,127h13.46Z" transform="translate(-55.83 -56.82)"/><path class="cls-1" d="M618.48,177.53c-4.5,3.18-10.44,5.76-20.08,5.76-17.08,0-24.8-9.23-22.44-28.79,2.27-18.76,14-28.49,28.75-28.49,13.86,0,20.64,8.74,19,22.14a76.8,76.8,0,0,1-1.78,9.73H587.71c-0.87,10.52,3.15,15.49,13.3,15.49a20.89,20.89,0,0,0,13.12-4.67Zm-6.38-30.38c0.91-7.55-1.91-11.62-9-11.62-6.93,0-12.63,4.77-14.12,13.8h22.9Z" transform="translate(-55.83 -56.82)"/><circle class="cls-1" cx="57.83" cy="58.04" r="6.61"/><path class="cls-1" d="M127.25,103.38a21.38,21.38,0,0,0-27.19,0,3.32,3.32,0,0,1-4.5-.34L95.49,103a3.31,3.31,0,0,1,.31-4.8,27.54,27.54,0,0,1,35.69,0,3.31,3.31,0,0,1,.31,4.8l-0.06.06A3.32,3.32,0,0,1,127.25,103.38Z" transform="translate(-55.83 -56.82)"/><path class="cls-1" d="M139.51,91.44a38.16,38.16,0,0,0-51.71,0,3.31,3.31,0,0,1-4.64-.23l0,0a3.32,3.32,0,0,1,.18-4.69c8.31-7.65,18.86-12.35,30.35-12.35s22,4.69,30.35,12.35a3.32,3.32,0,0,1,.18,4.69l0,0A3.31,3.31,0,0,1,139.51,91.44Z" transform="translate(-55.83 -56.82)"/><path class="cls-1" d="M156.29,78.92a3.31,3.31,0,0,1-4.59.16,55.76,55.76,0,0,0-76.1,0A3.31,3.31,0,0,1,71,78.92l-0.38-.39a3.31,3.31,0,0,1,.14-4.76,62.69,62.69,0,0,1,85.75,0,3.31,3.31,0,0,1,.14,4.76Z" transform="translate(-55.83 -56.82)"/><circle class="cls-1" cx="465.99" cy="58.13" r="6.61"/><path class="cls-1" d="M441.94,117.17l-0.22,1h-2.9l-1.61,7.58H436l1.61-7.58h-2.9l0.22-1h7Z" transform="translate(-55.83 -56.82)"/><path class="cls-1" d="M442.19,117.17h1.67l0.93,7.28,4-7.28h1.65l-1.83,8.61h-1.11l1.08-5.08q0.05-.26.2-0.87t0.29-1.31l-4,7.26h-1.15L443,118.52l-0.06.26-0.19,1q-0.12.65-.19,1l-1.08,5.08h-1.11Z" transform="translate(-55.83 -56.82)"/></svg>